<svg width="210" height="27" viewBox="0 0 210 27" fill="none" xmlns="http://www.w3.org/2000/svg">
<mask id="mask0_3_308" style="mask-type:luminance" maskUnits="userSpaceOnUse" x="0" y="0" width="26" height="27">
<path d="M0 0.5H25.5781V26.0781H0V0.5Z" fill="white"/>
</mask>
<g mask="url(#mask0_3_308)">
<path d="M12.79 24.3779C18.9146 24.3777 23.8799 19.4127 23.8799 13.2881C23.8797 7.16366 18.9145 2.19842 12.79 2.19824C6.66546 2.19824 1.70038 7.16355 1.7002 13.2881C1.7002 19.4128 6.66535 24.3779 12.79 24.3779Z" stroke="white" stroke-width="1.9" stroke-miterlimit="10"/>
</g>
<path d="M19.1691 16.9776C19.5725 16.2863 19.3391 15.3989 18.6478 14.9955L18.3542 14.8242C17.1859 14.1424 17.1676 12.4606 18.3208 11.7536L19.9849 10.7335C20.4656 10.4388 20.7263 9.88749 20.6491 9.32894V9.32894C20.51 8.32187 19.3884 7.78322 18.5154 8.30422L16.9567 9.23444C15.8038 9.92251 14.3414 9.08775 14.3477 7.74514L14.349 7.46933C14.3527 6.66894 13.7068 6.01708 12.9065 6.01338V6.01338C12.1061 6.00968 11.4542 6.65551 11.4505 7.45588L11.4492 7.75622C11.4429 9.10304 9.98105 9.93804 8.8178 9.25923L7.9562 8.75645C7.54947 8.51911 7.05211 8.49667 6.62567 8.69643V8.69643C5.58375 9.18448 5.51243 10.6393 6.50162 11.2269L7.37755 11.7473C8.53685 12.436 8.52249 14.1192 7.3516 14.788L7.08211 14.9419C6.38712 15.3389 6.14552 16.2241 6.54249 16.9191V16.9191C6.93946 17.6141 7.82467 17.8557 8.51967 17.4587L8.79999 17.2986C9.97252 16.6288 11.4333 17.4642 11.4508 18.8144L11.4635 19.7981C11.4774 20.8776 12.647 21.544 13.5828 21.0058V21.0058C14.0194 20.7546 14.2895 20.2901 14.2918 19.7864L14.2962 18.8505C14.3024 17.5037 15.7643 16.6687 16.9276 17.3475L17.187 17.4989C17.8782 17.9023 18.7657 17.6689 19.1691 16.9776V16.9776Z" fill="white"/>
<path d="M62.2402 5.81445H64.4961V19.7891H62.1621V8.99805L52.2695 17.8555L42.3672 8.99805V19.7891H40.043V5.81445H42.2988L52.2695 14.7305L62.2402 5.81445ZM71.498 8.14844C71.0163 8.14844 70.6061 8.31771 70.2676 8.65625C69.9225 9.0013 69.75 9.41146 69.75 9.88672V15.7168C69.75 16.1986 69.9225 16.6087 70.2676 16.9473C70.6061 17.2923 71.0163 17.4648 71.498 17.4648H86.6348C87.1165 17.4648 87.5299 17.2923 87.875 16.9473C88.2135 16.6087 88.3828 16.1986 88.3828 15.7168V9.88672C88.3828 9.41146 88.2135 9.0013 87.875 8.65625C87.5299 8.31771 87.1165 8.14844 86.6348 8.14844H71.498ZM71.498 19.7891C70.3783 19.7891 69.418 19.3919 68.6172 18.5977C67.8229 17.7969 67.4258 16.8366 67.4258 15.7168V9.88672C67.4258 8.76693 67.8229 7.8099 68.6172 7.01562C69.418 6.21484 70.3783 5.81445 71.498 5.81445H86.6348C87.7611 5.81445 88.7214 6.21484 89.5156 7.01562C90.3164 7.8099 90.7168 8.76693 90.7168 9.88672V15.7168C90.7168 16.8366 90.3164 17.7969 89.5156 18.5977C88.7214 19.3919 87.7611 19.7891 86.6348 19.7891H71.498ZM97.7285 8.14844C97.2467 8.14844 96.8366 8.31771 96.498 8.65625C96.153 9.0013 95.9805 9.41146 95.9805 9.88672V15.7168C95.9805 16.1986 96.153 16.6087 96.498 16.9473C96.8366 17.2923 97.2467 17.4648 97.7285 17.4648H112.865C113.347 17.4648 113.76 17.2923 114.105 16.9473C114.444 16.6087 114.613 16.1986 114.613 15.7168V9.88672C114.613 9.41146 114.444 9.0013 114.105 8.65625C113.76 8.31771 113.347 8.14844 112.865 8.14844H97.7285ZM97.7285 19.7891C96.6087 19.7891 95.6484 19.3919 94.8477 18.5977C94.0534 17.7969 93.6562 16.8366 93.6562 15.7168V9.88672C93.6562 8.76693 94.0534 7.8099 94.8477 7.01562C95.6484 6.21484 96.6087 5.81445 97.7285 5.81445H112.865C113.992 5.81445 114.952 6.21484 115.746 7.01562C116.547 7.8099 116.947 8.76693 116.947 9.88672V15.7168C116.947 16.8366 116.547 17.7969 115.746 18.5977C114.952 19.3919 113.992 19.7891 112.865 19.7891H97.7285ZM151.771 5.81445H154.77L143.48 19.7891H140.541L137.328 15.3652L134.105 19.7891H131.176L119.887 5.81445H122.885L132.621 17.875L136.312 12.8066H138.344L142.035 17.875L151.771 5.81445ZM157.699 11.6348H180.99V13.9688H160.023V17.4648H180.99V19.7891H157.699V11.6348ZM157.699 5.81445H180.99V8.14844H157.699V5.81445ZM183.93 11.6348H207.221V13.9688H186.254V17.4648H207.221V19.7891H183.93V11.6348ZM183.93 5.81445H207.221V8.14844H183.93V5.81445Z" fill="white"/>
</svg>
