<svg width="210" height="26" viewBox="0 0 210 26" fill="none" xmlns="http://www.w3.org/2000/svg">
<mask id="mask0_1_99" style="mask-type:luminance" maskUnits="userSpaceOnUse" x="0" y="0" width="26" height="26">
<path d="M-1.52588e-05 0.222656H25.5781V25.8008H-1.52588e-05V0.222656Z" fill="white"/>
</mask>
<g mask="url(#mask0_1_99)">
<path d="M12.79 24.1006C18.9146 24.1004 23.8799 19.1353 23.8799 13.0107C23.8797 6.88632 18.9145 1.92108 12.79 1.9209C6.66544 1.9209 1.70036 6.8862 1.70018 13.0107C1.70018 19.1354 6.66533 24.1006 12.79 24.1006Z" stroke="black" stroke-width="1.9" stroke-miterlimit="10"/>
</g>
<path d="M19.169 16.7003C19.5725 16.009 19.3391 15.1215 18.6478 14.7181L18.3542 14.5468C17.1858 13.8651 17.1676 12.1833 18.3208 11.4763L19.9848 10.4561C20.4655 10.1614 20.7263 9.61015 20.6491 9.05159V9.05159C20.51 8.04453 19.3884 7.50587 18.5154 8.02687L16.9567 8.9571C15.8038 9.64516 14.3414 8.8104 14.3477 7.46779L14.3489 7.19199C14.3527 6.39159 13.7068 5.73973 12.9064 5.73603V5.73603C12.106 5.73234 11.4542 6.37817 11.4505 7.17854L11.4491 7.47888C11.4429 8.82569 9.98102 9.6607 8.81777 8.98189L7.95617 8.47911C7.54944 8.24177 7.05208 8.21933 6.62564 8.41908V8.41908C5.58372 8.90713 5.5124 10.362 6.50158 10.9496L7.37752 11.4699C8.53682 12.1586 8.52246 13.8418 7.35157 14.5106L7.08208 14.6646C6.38708 15.0615 6.14549 15.9467 6.54246 16.6417V16.6417C6.93943 17.3367 7.82464 17.5783 8.51964 17.1813L8.79996 17.0212C9.97249 16.3515 11.4333 17.1868 11.4507 18.537L11.4635 19.5208C11.4774 20.6003 12.6469 21.2667 13.5827 20.7284V20.7284C14.0194 20.4772 14.2895 20.0128 14.2918 19.5091L14.2962 18.5731C14.3024 17.2263 15.7643 16.3913 16.9275 17.0702L17.1869 17.2215C17.8782 17.6249 18.7656 17.3916 19.169 16.7003V16.7003Z" fill="black"/>
<path d="M62.2402 5.53711H64.4961V19.5117H62.1621V8.7207L52.2695 17.5781L42.3672 8.7207V19.5117H40.043V5.53711H42.2988L52.2695 14.4531L62.2402 5.53711ZM71.498 7.87109C71.0163 7.87109 70.6061 8.04036 70.2676 8.37891C69.9225 8.72396 69.75 9.13411 69.75 9.60938V15.4395C69.75 15.9212 69.9225 16.3314 70.2676 16.6699C70.6061 17.015 71.0163 17.1875 71.498 17.1875H86.6348C87.1165 17.1875 87.5299 17.015 87.875 16.6699C88.2135 16.3314 88.3828 15.9212 88.3828 15.4395V9.60938C88.3828 9.13411 88.2135 8.72396 87.875 8.37891C87.5299 8.04036 87.1165 7.87109 86.6348 7.87109H71.498ZM71.498 19.5117C70.3783 19.5117 69.418 19.1146 68.6172 18.3203C67.8229 17.5195 67.4258 16.5592 67.4258 15.4395V9.60938C67.4258 8.48958 67.8229 7.53255 68.6172 6.73828C69.418 5.9375 70.3783 5.53711 71.498 5.53711H86.6348C87.7611 5.53711 88.7214 5.9375 89.5156 6.73828C90.3164 7.53255 90.7168 8.48958 90.7168 9.60938V15.4395C90.7168 16.5592 90.3164 17.5195 89.5156 18.3203C88.7214 19.1146 87.7611 19.5117 86.6348 19.5117H71.498ZM97.7285 7.87109C97.2467 7.87109 96.8366 8.04036 96.498 8.37891C96.153 8.72396 95.9805 9.13411 95.9805 9.60938V15.4395C95.9805 15.9212 96.153 16.3314 96.498 16.6699C96.8366 17.015 97.2467 17.1875 97.7285 17.1875H112.865C113.347 17.1875 113.76 17.015 114.105 16.6699C114.444 16.3314 114.613 15.9212 114.613 15.4395V9.60938C114.613 9.13411 114.444 8.72396 114.105 8.37891C113.76 8.04036 113.347 7.87109 112.865 7.87109H97.7285ZM97.7285 19.5117C96.6087 19.5117 95.6484 19.1146 94.8477 18.3203C94.0534 17.5195 93.6562 16.5592 93.6562 15.4395V9.60938C93.6562 8.48958 94.0534 7.53255 94.8477 6.73828C95.6484 5.9375 96.6087 5.53711 97.7285 5.53711H112.865C113.992 5.53711 114.952 5.9375 115.746 6.73828C116.547 7.53255 116.947 8.48958 116.947 9.60938V15.4395C116.947 16.5592 116.547 17.5195 115.746 18.3203C114.952 19.1146 113.992 19.5117 112.865 19.5117H97.7285ZM151.771 5.53711H154.77L143.48 19.5117H140.541L137.328 15.0879L134.105 19.5117H131.176L119.887 5.53711H122.885L132.621 17.5977L136.312 12.5293H138.344L142.035 17.5977L151.771 5.53711ZM157.699 11.3574H180.99V13.6914H160.023V17.1875H180.99V19.5117H157.699V11.3574ZM157.699 5.53711H180.99V7.87109H157.699V5.53711ZM183.93 11.3574H207.221V13.6914H186.254V17.1875H207.221V19.5117H183.93V11.3574ZM183.93 5.53711H207.221V7.87109H183.93V5.53711Z" fill="black"/>
</svg>
