<svg width="99" height="99" viewBox="0 0 99 99" fill="none" xmlns="http://www.w3.org/2000/svg">
<g clip-path="url(#clip0_1_1535)">
<path d="M91.4196 54.6618C91.3183 54.651 91.2202 54.6201 91.131 54.5707C91.0419 54.5212 90.9637 54.4544 90.9009 54.3742C90.8381 54.2939 90.792 54.2019 90.7655 54.1035C90.739 54.0051 90.7325 53.9024 90.7464 53.8015C90.7526 53.6992 90.7794 53.5993 90.8251 53.5076C90.8709 53.416 90.9347 53.3346 91.0127 53.2682C91.0907 53.2018 91.1813 53.1519 91.2791 53.1214C91.3769 53.0909 91.4798 53.0805 91.5817 53.0907C91.6848 53.1014 91.7849 53.1322 91.8761 53.1815C91.9673 53.2309 92.0479 53.2977 92.1133 53.3781C92.1787 53.4586 92.2276 53.5512 92.2573 53.6505C92.2869 53.7499 92.2967 53.8542 92.2861 53.9573C92.2754 54.0605 92.2446 54.1605 92.1953 54.2517C92.146 54.343 92.0792 54.4236 91.9987 54.489C91.9183 54.5544 91.8257 54.6034 91.7264 54.633C91.627 54.6626 91.5228 54.6724 91.4196 54.6618Z" fill="white"/>
<path d="M90.4104 59.9857C90.2081 59.9328 90.0346 59.8025 89.9274 59.6229C89.8201 59.4434 89.7876 59.2289 89.8369 59.0256C89.8927 58.8217 90.0249 58.6471 90.2059 58.538C90.3869 58.4289 90.603 58.3937 90.8094 58.4396C90.9108 58.4613 91.0067 58.5036 91.0912 58.5637C91.1757 58.6239 91.2471 58.7007 91.3008 58.7895C91.3545 58.8782 91.3895 58.9771 91.4036 59.0799C91.4177 59.1826 91.4106 59.2872 91.3828 59.3872C91.3325 59.5951 91.2021 59.7747 91.0199 59.8868C90.8378 59.9989 90.6187 60.0345 90.4104 59.9857Z" fill="white"/>
<path d="M88.7523 65.1351C88.5595 65.0521 88.4049 64.8996 88.3194 64.7078C88.234 64.516 88.2238 64.2991 88.291 64.1002C88.348 63.9533 88.4472 63.8266 88.5761 63.736C88.705 63.6454 88.8578 63.5949 89.0153 63.5911C89.1727 63.5872 89.3279 63.63 89.461 63.7142C89.5942 63.7983 89.6995 63.92 89.7637 64.0639C89.8278 64.2078 89.8479 64.3675 89.8215 64.5228C89.795 64.6781 89.7232 64.8221 89.615 64.9367C89.5069 65.0512 89.3672 65.1312 89.2137 65.1665C89.0602 65.2018 88.8996 65.1909 88.7523 65.1351Z" fill="white"/>
<path d="M86.4461 70.0102C86.2698 69.9057 86.1396 69.7383 86.0818 69.5417C86.0239 69.345 86.0427 69.1337 86.1344 68.9504C86.228 68.7661 86.3904 68.6262 86.5864 68.5608C86.7824 68.4955 86.9963 68.51 87.1817 68.6013C87.3709 68.6998 87.5137 68.8689 87.579 69.072C87.6444 69.275 87.627 69.4957 87.5307 69.6861C87.4852 69.7826 87.4198 69.8686 87.3388 69.9382C87.2578 70.0078 87.1631 70.0596 87.0608 70.0902C86.9584 70.1208 86.8508 70.1294 86.7449 70.1157C86.639 70.1019 86.5372 70.066 86.4461 70.0102Z" fill="white"/>
<path d="M83.5284 74.5621C83.4449 74.5016 83.3741 74.4251 83.3202 74.3372C83.2662 74.2493 83.2301 74.1516 83.2139 74.0497C83.1976 73.9478 83.2017 73.8437 83.2257 73.7434C83.2497 73.643 83.2933 73.5484 83.3538 73.4649C83.4805 73.2987 83.6656 73.1868 83.8717 73.1521C84.0777 73.1173 84.2893 73.1623 84.4634 73.2779C84.5507 73.3352 84.6252 73.4099 84.6823 73.4973C84.7395 73.5847 84.7781 73.6829 84.7956 73.7858C84.8131 73.8887 84.8093 73.9942 84.7843 74.0956C84.7593 74.197 84.7138 74.2921 84.6504 74.3751C84.5254 74.5474 84.3377 74.6636 84.1277 74.6986C83.9178 74.7336 83.7025 74.6846 83.5284 74.5621Z" fill="white"/>
<path d="M80.0373 78.7014C79.8953 78.549 79.8164 78.3485 79.8164 78.1403C79.8164 77.932 79.8953 77.7315 80.0373 77.5792C80.1867 77.4315 80.3883 77.3486 80.5983 77.3486C80.8084 77.3486 81.01 77.4315 81.1593 77.5792C81.2355 77.6514 81.2962 77.7384 81.3377 77.8349C81.3792 77.9314 81.4006 78.0353 81.4006 78.1403C81.4006 78.2453 81.3792 78.3492 81.3377 78.4457C81.2962 78.5421 81.2355 78.6291 81.1593 78.7014C81.0871 78.7776 81.0001 78.8383 80.9037 78.8798C80.8072 78.9212 80.7033 78.9426 80.5983 78.9426C80.4933 78.9426 80.3894 78.9212 80.293 78.8798C80.1965 78.8383 80.1095 78.7776 80.0373 78.7014Z" fill="white"/>
<path d="M77.2952 81.332C77.4334 81.4967 77.5016 81.709 77.4853 81.9234C77.469 82.1377 77.3695 82.3372 77.208 82.4791C77.1284 82.5487 77.0354 82.6011 76.9347 82.6333C76.834 82.6654 76.7278 82.6766 76.6227 82.6661C76.5175 82.6555 76.4156 82.6236 76.3233 82.5721C76.231 82.5207 76.1502 82.4508 76.0859 82.3669" fill="white"/>
<path d="M71.6472 85.4844C71.5393 85.3068 71.505 85.094 71.5515 84.8914C71.5981 84.6888 71.7219 84.5124 71.8965 84.3997C72.0795 84.2963 72.2943 84.2646 72.4993 84.3107C72.7043 84.3567 72.8849 84.4773 73.0061 84.649C73.0646 84.7355 73.1047 84.8331 73.1238 84.9358C73.143 85.0384 73.1408 85.1439 73.1174 85.2457C73.094 85.3474 73.0499 85.4433 72.9879 85.5273C72.9258 85.6113 72.8471 85.6815 72.7567 85.7338C72.6678 85.7911 72.5683 85.8302 72.4641 85.8487C72.3599 85.8671 72.253 85.8647 72.1498 85.8415C72.0465 85.8183 71.9489 85.7748 71.8626 85.7135C71.7763 85.6522 71.7031 85.5743 71.6472 85.4844Z" fill="white"/>
<path d="M66.8852 88.0275C66.7985 87.8367 66.789 87.6198 66.8587 87.4222C66.9284 87.2246 67.072 87.0617 67.2592 86.9677C67.4484 86.88 67.6642 86.8686 67.8615 86.936C68.0589 87.0033 68.2227 87.1442 68.3189 87.3293C68.365 87.4249 68.3916 87.5287 68.3971 87.6347C68.4026 87.7407 68.3869 87.8467 68.3509 87.9466C68.3149 88.0465 68.2594 88.1381 68.1875 88.2162C68.1157 88.2944 68.0289 88.3574 67.9324 88.4016C67.8394 88.4476 67.7381 88.4745 67.6345 88.4805C67.5309 88.4866 67.4272 88.4717 67.3295 88.4368C67.2317 88.4019 67.142 88.3477 67.0657 88.2774C66.9894 88.207 66.928 88.1221 66.8852 88.0275Z" fill="white"/>
<path d="M61.8238 89.9357C61.7708 89.7374 61.7938 89.5264 61.8884 89.3441C61.983 89.1619 62.1423 89.0215 62.335 88.9507C62.4315 88.9153 62.5341 88.8994 62.6368 88.9041C62.7395 88.9088 62.8403 88.934 62.9332 88.9781C63.0261 89.0222 63.1092 89.0844 63.1777 89.1611C63.2463 89.2377 63.2988 89.3273 63.3323 89.4245C63.4005 89.628 63.3866 89.8501 63.2934 90.0434C63.2003 90.2367 63.0353 90.386 62.8337 90.4594C62.7332 90.4959 62.6262 90.5112 62.5195 90.5043C62.4129 90.4973 62.3088 90.4683 62.2139 90.4191C62.119 90.3699 62.0353 90.3015 61.9682 90.2183C61.901 90.1351 61.8519 90.0389 61.8238 89.9357Z" fill="white"/>
<path d="M56.5497 91.1452C56.5173 90.9403 56.5673 90.7309 56.6887 90.5627C56.8102 90.3945 56.9933 90.2812 57.1979 90.2475C57.4032 90.2203 57.6112 90.2703 57.7816 90.3878C57.9521 90.5053 58.0729 90.6819 58.1205 90.8834C58.146 90.9862 58.1494 91.0933 58.1304 91.1975C58.1114 91.3017 58.0705 91.4007 58.0104 91.4879C57.9503 91.5752 57.8723 91.6486 57.7817 91.7034C57.6911 91.7583 57.5898 91.7933 57.4847 91.806C57.2731 91.8422 57.0558 91.7929 56.8805 91.669C56.7052 91.5451 56.5862 91.3567 56.5497 91.1452Z" fill="white"/>
<path d="M51.1772 91.6935C51.1703 91.486 51.2446 91.2839 51.3843 91.1303C51.5239 90.9766 51.718 90.8835 51.9252 90.8706C52.1353 90.8634 52.3403 90.9369 52.4979 91.076C52.6556 91.2151 52.754 91.4093 52.773 91.6187C52.7815 91.7227 52.7686 91.8273 52.735 91.926C52.7014 92.0248 52.6479 92.1156 52.5778 92.1927C52.5076 92.2699 52.4223 92.3318 52.3272 92.3747C52.2321 92.4175 52.1292 92.4403 52.0249 92.4416C51.9198 92.4501 51.814 92.4373 51.7138 92.404C51.6137 92.3707 51.5213 92.3175 51.4422 92.2477C51.3631 92.1779 51.2988 92.0928 51.2533 91.9976C51.2078 91.9024 51.1819 91.799 51.1772 91.6935Z" fill="white"/>
<path d="M45.7782 91.5937C45.7971 91.3832 45.895 91.1877 46.0523 91.0465C46.2097 90.9054 46.4146 90.8292 46.6259 90.8332C46.8332 90.8491 47.026 90.9454 47.1634 91.1014C47.3008 91.2574 47.3718 91.4609 47.3615 91.6685C47.3568 91.774 47.3309 91.8774 47.2854 91.9726C47.2398 92.0678 47.1756 92.1529 47.0965 92.2227C47.0173 92.2925 46.925 92.3457 46.8248 92.379C46.7247 92.4123 46.6189 92.4251 46.5137 92.4167C46.4099 92.4155 46.3075 92.3926 46.213 92.3497C46.1185 92.3067 46.0339 92.2446 45.9648 92.1672C45.8956 92.0898 45.8433 91.9988 45.8111 91.9001C45.779 91.8014 45.7678 91.697 45.7782 91.5937Z" fill="white"/>
<path d="M40.4301 90.7581C40.4776 90.5571 40.6024 90.3829 40.7774 90.2732C40.9524 90.1636 41.1635 90.1272 41.3651 90.1721C41.4657 90.1886 41.562 90.2251 41.6482 90.2795C41.7344 90.3339 41.8088 90.4051 41.867 90.4889C41.9251 90.5726 41.9658 90.6672 41.9867 90.767C42.0076 90.8668 42.0082 90.9698 41.9884 91.0698C41.949 91.2791 41.8288 91.4644 41.6538 91.5857C41.4789 91.707 41.2632 91.7546 41.0534 91.7182C40.9487 91.6975 40.8492 91.656 40.7609 91.5962C40.6725 91.5364 40.597 91.4594 40.5389 91.3699C40.4807 91.2804 40.4412 91.1801 40.4225 91.075C40.4038 90.97 40.4064 90.8622 40.4301 90.7581Z" fill="white"/>
<path d="M35.2442 89.2495C35.3122 89.0529 35.4554 88.8913 35.6423 88.8001C35.8293 88.709 36.0448 88.6957 36.2416 88.7633C36.4366 88.8415 36.5956 88.9895 36.6878 89.1784C36.7799 89.3673 36.7986 89.5838 36.7402 89.7857C36.7081 89.8855 36.6561 89.9778 36.5872 90.0568C36.5184 90.1359 36.4341 90.2001 36.3397 90.2456C36.2452 90.2911 36.1425 90.3169 36.0378 90.3214C35.933 90.326 35.8284 90.3091 35.7304 90.272C35.6312 90.2371 35.5398 90.1829 35.4616 90.1125C35.3833 90.0421 35.3198 89.957 35.2746 89.8619C35.2294 89.7669 35.2035 89.6639 35.1982 89.5588C35.193 89.4537 35.2086 89.3486 35.2442 89.2495Z" fill="white"/>
<path d="M30.2825 87.1546C30.3843 86.9835 30.5464 86.8566 30.737 86.7989C30.9276 86.7412 31.1329 86.7568 31.3125 86.8427C31.4921 86.9287 31.6331 87.0787 31.7078 87.2633C31.7825 87.4479 31.7855 87.6537 31.7162 87.8404C31.6711 87.9359 31.6072 88.0214 31.5283 88.0916C31.4494 88.1619 31.3571 88.2155 31.257 88.2492C31.1569 88.283 31.0511 88.2962 30.9457 88.2881C30.8404 88.28 30.7378 88.2507 30.6441 88.202C30.5481 88.1609 30.4619 88.1003 30.3908 88.0239C30.3197 87.9475 30.2654 87.857 30.2314 87.7584C30.1973 87.6598 30.1843 87.5551 30.1931 87.4511C30.2019 87.3471 30.2324 87.2462 30.2825 87.1546Z" fill="white"/>
<path d="M25.6448 84.3371C25.7632 84.1685 25.9423 84.0524 26.1444 84.0129C26.3466 83.9734 26.5562 84.0136 26.7294 84.1251C26.817 84.1784 26.8929 84.2489 26.9526 84.3324C27.0123 84.4158 27.0544 84.5105 27.0766 84.6107C27.0987 84.7109 27.1003 84.8145 27.0814 84.9153C27.0624 85.0161 27.0233 85.1121 26.9663 85.1974C26.9104 85.2872 26.8371 85.3651 26.7509 85.4264C26.6646 85.4877 26.567 85.5312 26.4637 85.5545C26.3604 85.5777 26.2536 85.5801 26.1494 85.5616C26.0452 85.5431 25.9457 85.5041 25.8567 85.4468C25.7671 85.3902 25.6901 85.3159 25.6304 85.2284C25.5707 85.1408 25.5297 85.042 25.5098 84.9379C25.4899 84.8339 25.4917 84.7268 25.5149 84.6235C25.5381 84.5201 25.5823 84.4226 25.6448 84.3371Z" fill="white"/>
<path d="M21.4056 80.9208C21.4775 80.8484 21.5629 80.791 21.6571 80.7518C21.7512 80.7126 21.8522 80.6924 21.9542 80.6924C22.0562 80.6924 22.1571 80.7126 22.2513 80.7518C22.3454 80.791 22.4309 80.8484 22.5027 80.9208C22.6545 81.0633 22.7476 81.2574 22.7637 81.465C22.7798 81.6726 22.7179 81.8787 22.59 82.043C22.5241 82.1258 22.4416 82.194 22.3479 82.2431C22.2541 82.2922 22.1511 82.3212 22.0455 82.3283C21.9399 82.3353 21.834 82.3202 21.7345 82.284C21.6351 82.2477 21.5443 82.1911 21.468 82.1178C21.379 82.0474 21.3061 81.9589 21.254 81.8581C21.202 81.7574 21.172 81.6467 21.1661 81.5334C21.1602 81.4201 21.1785 81.3069 21.2198 81.2013C21.2611 81.0956 21.3245 81 21.4056 80.9208Z" fill="white"/>
<path d="M17.6035 77.1798C17.7636 77.046 17.9685 76.978 18.1769 76.9895C18.3852 77.0011 18.5813 77.0914 18.7256 77.2421C18.8703 77.393 18.9512 77.5941 18.9512 77.8032C18.9512 78.0123 18.8703 78.2134 18.7256 78.3643C18.6484 78.435 18.5578 78.4896 18.4592 78.5248C18.3606 78.5601 18.256 78.5752 18.1514 78.5694C18.0469 78.5636 17.9446 78.5369 17.8505 78.491C17.7564 78.4451 17.6724 78.3808 17.6035 78.3019C17.5273 78.2297 17.4666 78.1427 17.4252 78.0462C17.3837 77.9498 17.3623 77.8459 17.3623 77.7409C17.3623 77.6359 17.3837 77.532 17.4252 77.4355C17.4666 77.339 17.5273 77.252 17.6035 77.1798Z" fill="white"/>
<path d="M14.3372 72.816C14.5112 72.7075 14.7199 72.6691 14.9212 72.7084C15.1225 72.7477 15.3014 72.8619 15.4218 73.028C15.4837 73.1099 15.5284 73.2034 15.5532 73.3031C15.578 73.4027 15.5824 73.5063 15.5661 73.6076C15.5498 73.709 15.5131 73.806 15.4583 73.8928C15.4035 73.9796 15.3317 74.0544 15.2473 74.1127C15.1616 74.175 15.0644 74.2196 14.9614 74.2439C14.8584 74.2682 14.7515 74.2717 14.6471 74.2543C14.5426 74.2369 14.4427 74.1989 14.3531 74.1425C14.2635 74.0861 14.1861 74.0124 14.1252 73.9257C14.0628 73.8402 14.0186 73.7427 13.9954 73.6393C13.9721 73.536 13.9704 73.4289 13.9903 73.3248C14.0102 73.2208 14.0512 73.1219 14.1109 73.0344C14.1706 72.9469 14.2476 72.8725 14.3372 72.816Z" fill="white"/>
<path d="M11.6693 68.1154C11.8562 68.0251 12.0713 68.0124 12.2676 68.0801C12.4638 68.1479 12.6252 68.2906 12.7166 68.477C12.8028 68.6671 12.8148 68.8825 12.7502 69.081C12.6856 69.2794 12.5491 69.4465 12.3675 69.5493C12.2758 69.6 12.1747 69.6313 12.0704 69.6411C11.9661 69.6508 11.8609 69.639 11.7614 69.6062C11.6619 69.5734 11.5703 69.5204 11.4922 69.4506C11.4142 69.3807 11.3514 69.2955 11.3078 69.2002C11.2589 69.1055 11.2294 69.002 11.2212 68.8957C11.2129 68.7895 11.226 68.6826 11.2597 68.5815C11.2934 68.4804 11.347 68.3871 11.4174 68.307C11.4877 68.227 11.5734 68.1618 11.6693 68.1154Z" fill="white"/>
<path d="M9.58684 63.1278C9.78202 63.068 9.9927 63.0853 10.1755 63.1761C10.3583 63.2669 10.4994 63.4244 10.5697 63.616C10.64 63.8077 10.6341 64.0191 10.5533 64.2066C10.4725 64.3941 10.323 64.5434 10.1354 64.624C10.0365 64.6613 9.93108 64.6783 9.82548 64.6739C9.71987 64.6695 9.61623 64.6438 9.52078 64.5984C9.42533 64.553 9.34002 64.4888 9.26996 64.4097C9.19991 64.3305 9.14656 64.238 9.1131 64.1377C9.07568 64.0405 9.0583 63.9367 9.06201 63.8325C9.06573 63.7284 9.09046 63.6261 9.13471 63.5318C9.17896 63.4374 9.24182 63.353 9.31952 63.2836C9.39721 63.2142 9.48814 63.1612 9.58684 63.1278Z" fill="white"/>
<path d="M8.17789 57.9034C8.38166 57.8718 8.58989 57.9168 8.76251 58.0296C8.93513 58.1424 9.05994 58.315 9.11291 58.5144C9.13878 58.6135 9.14436 58.7168 9.12931 58.8182C9.11426 58.9195 9.0789 59.0168 9.02534 59.1041C8.97178 59.1914 8.90113 59.267 8.81763 59.3264C8.73413 59.3857 8.6395 59.4276 8.53943 59.4495C8.43623 59.4754 8.32891 59.4804 8.22377 59.4641C8.11862 59.4479 8.01778 59.4108 7.92718 59.3551C7.83657 59.2993 7.75804 59.226 7.69618 59.1394C7.63433 59.0529 7.59041 58.9548 7.56701 58.851C7.53948 58.7484 7.53374 58.6412 7.55016 58.5363C7.56658 58.4313 7.6048 58.331 7.66234 58.2417C7.71989 58.1524 7.7955 58.0762 7.88429 58.018C7.97308 57.9597 8.0731 57.9207 8.17789 57.9034Z" fill="white"/>
<path d="M7.48023 52.5427C7.58178 52.536 7.68366 52.5493 7.78004 52.582C7.87641 52.6147 7.96538 52.6662 8.04183 52.7334C8.11828 52.8006 8.18071 52.8822 8.22554 52.9736C8.27037 53.065 8.2967 53.1643 8.30304 53.2659C8.32051 53.4737 8.25592 53.6801 8.1231 53.8409C7.99028 54.0017 7.7998 54.1041 7.59243 54.1262C7.48765 54.142 7.38073 54.1357 7.27852 54.1078C7.17632 54.0798 7.08107 54.0308 6.99891 53.9639C6.91674 53.897 6.84947 53.8137 6.80139 53.7192C6.75332 53.6248 6.72551 53.5213 6.71974 53.4155C6.70924 53.2 6.78254 52.9887 6.92431 52.826C7.06607 52.6633 7.26529 52.5618 7.48023 52.5427Z" fill="white"/>
<path d="M7.47968 47.1432C7.68801 47.156 7.88337 47.2487 8.02504 47.402C8.16671 47.5553 8.24377 47.7574 8.24016 47.9661C8.22429 48.1756 8.12893 48.371 7.97364 48.5124C7.81834 48.6538 7.61486 48.7305 7.40488 48.7267C7.30059 48.7253 7.19771 48.7026 7.1026 48.6597C7.0075 48.6169 6.92222 48.555 6.85207 48.4778C6.78191 48.4006 6.72838 48.3098 6.6948 48.2111C6.66122 48.1123 6.6483 48.0078 6.65686 47.9038C6.65833 47.799 6.6811 47.6956 6.72377 47.5998C6.76644 47.5041 6.82814 47.4181 6.9051 47.3469C6.98206 47.2758 7.07268 47.221 7.17146 47.186C7.27023 47.151 7.3751 47.1364 7.47968 47.1432Z" fill="white"/>
<path d="M8.06617 41.769C8.27454 41.8086 8.46005 41.926 8.58508 42.0973C8.7101 42.2687 8.76527 42.4812 8.73938 42.6917C8.69987 42.8959 8.58335 43.0772 8.41394 43.1979C8.24453 43.3186 8.03521 43.3695 7.8293 43.3401C7.72559 43.3249 7.62595 43.2892 7.53627 43.235C7.44658 43.1807 7.36865 43.1091 7.30707 43.0243C7.2455 42.9394 7.20152 42.8432 7.17773 42.7411C7.15394 42.639 7.15082 42.5332 7.16855 42.4299C7.18215 42.3267 7.21645 42.2273 7.26939 42.1376C7.32234 42.048 7.39283 41.97 7.47666 41.9083C7.56048 41.8466 7.65591 41.8024 7.75721 41.7785C7.85851 41.7546 7.9636 41.7514 8.06617 41.769Z" fill="white"/>
<path d="M9.39987 36.5325C9.59436 36.6008 9.75549 36.7408 9.85046 36.9238C9.94542 37.1068 9.96707 37.3191 9.91101 37.5175C9.88371 37.6161 9.83712 37.7082 9.77395 37.7887C9.71077 37.8691 9.63226 37.9362 9.54298 37.986C9.45369 38.0359 9.3554 38.0676 9.25379 38.0792C9.15218 38.0908 9.04928 38.0821 8.95106 38.0536C8.74458 37.9955 8.56959 37.8578 8.46442 37.6708C8.35926 37.4839 8.33251 37.2628 8.39004 37.0562C8.42122 36.955 8.47222 36.861 8.54008 36.7797C8.60793 36.6984 8.69128 36.6315 8.78527 36.5827C8.87925 36.534 8.982 36.5044 9.08751 36.4958C9.19303 36.4872 9.29921 36.4996 9.39987 36.5325Z" fill="white"/>
<path d="M11.4195 31.5075C11.6058 31.5991 11.7491 31.7597 11.819 31.9553C11.8888 32.1508 11.8797 32.3659 11.7935 32.5548C11.6971 32.7403 11.5356 32.8836 11.34 32.9572C11.1444 33.0308 10.9286 33.0296 10.7338 32.9538C10.6357 32.9152 10.5469 32.8563 10.4732 32.781C10.3995 32.7057 10.3425 32.6156 10.306 32.5167C10.2695 32.4178 10.2544 32.3123 10.2615 32.2072C10.2686 32.102 10.2978 31.9995 10.3473 31.9065C10.4369 31.7116 10.6 31.5602 10.801 31.4855C11.002 31.4107 11.2244 31.4186 11.4195 31.5075Z" fill="white"/>
<path d="M14.0258 26.7825C14.1851 26.901 14.2945 27.0746 14.3327 27.2694C14.3709 27.4643 14.335 27.6663 14.2322 27.8362C14.1294 28.006 13.9669 28.1314 13.7766 28.1879C13.5863 28.2444 13.3817 28.2278 13.2029 28.1415C13.1125 28.0879 13.0337 28.0165 12.9713 27.9318C12.909 27.8471 12.8642 27.7507 12.8398 27.6484C12.8154 27.546 12.8118 27.4398 12.8292 27.3361C12.8466 27.2323 12.8847 27.1331 12.9411 27.0443C12.9923 26.9529 13.0618 26.873 13.1453 26.8097C13.2288 26.7465 13.3244 26.7011 13.4263 26.6765C13.5281 26.6519 13.6339 26.6486 13.7371 26.6669C13.8402 26.6851 13.9385 26.7245 14.0258 26.7825Z" fill="white"/>
<path d="M17.2289 22.4309C17.3833 22.5659 17.4799 22.7553 17.4985 22.9596C17.517 23.1639 17.4562 23.3675 17.3286 23.5282C17.2686 23.6113 17.1921 23.6812 17.1039 23.7335C17.0158 23.7858 16.9178 23.8195 16.8161 23.8323C16.7144 23.8452 16.6111 23.837 16.5127 23.8083C16.4143 23.7795 16.3228 23.7309 16.244 23.6653C16.0767 23.5326 15.9676 23.34 15.9397 23.1283C15.9118 22.9166 15.9672 22.7023 16.0944 22.5307C16.1596 22.4458 16.2418 22.3753 16.3356 22.3238C16.4295 22.2723 16.5331 22.2409 16.6397 22.2315C16.7464 22.2221 16.8538 22.235 16.9552 22.2693C17.0567 22.3037 17.1498 22.3587 17.2289 22.4309Z" fill="white"/>
<path d="M20.9317 19.638C20.7794 19.78 20.5789 19.859 20.3707 19.859C20.1625 19.859 19.962 19.78 19.8097 19.638C19.7338 19.5669 19.6733 19.4809 19.632 19.3855C19.5907 19.2901 19.5693 19.1872 19.5693 19.0832C19.5693 18.9792 19.5907 18.8763 19.632 18.7808C19.6733 18.6854 19.7338 18.5995 19.8097 18.5283" fill="white"/>
<path d="M25.1708 15.1118C25.2899 15.2849 25.3393 15.4966 25.3093 15.7046C25.2793 15.9126 25.172 16.1016 25.0088 16.234C24.8376 16.3522 24.628 16.4013 24.4221 16.3712C24.2162 16.3411 24.0294 16.2342 23.8992 16.0719C23.8141 15.993 23.7472 15.8965 23.7032 15.7891C23.6592 15.6818 23.6391 15.5661 23.6444 15.4502C23.6497 15.3342 23.6802 15.2209 23.7337 15.1179C23.7873 15.015 23.8627 14.925 23.9547 14.8542C24.0466 14.7834 24.1529 14.7335 24.2661 14.708C24.3792 14.6825 24.4966 14.682 24.6101 14.7065C24.7235 14.731 24.8302 14.78 24.9227 14.85C25.0153 14.92 25.0914 15.0093 25.1459 15.1118H25.1708Z" fill="white"/>
<path d="M29.7714 12.2688C29.8658 12.4549 29.8847 12.6702 29.8244 12.8699C29.764 13.0697 29.6289 13.2384 29.4472 13.3411C29.3589 13.3923 29.2614 13.4255 29.1602 13.4388C29.059 13.4521 28.9562 13.4452 28.8576 13.4185C28.7591 13.3919 28.6668 13.3459 28.5862 13.2834C28.5055 13.2209 28.438 13.143 28.3875 13.0543C28.3343 12.9628 28.2998 12.8617 28.2861 12.7567C28.2723 12.6518 28.2796 12.5451 28.3074 12.443C28.3353 12.3409 28.3831 12.2454 28.4483 12.1619C28.5134 12.0785 28.5945 12.0089 28.6867 11.9571C28.7776 11.9028 28.8786 11.8678 28.9835 11.8541C29.0884 11.8405 29.195 11.8485 29.2966 11.8777C29.3983 11.9069 29.4929 11.9567 29.5746 12.024C29.6562 12.0913 29.7232 12.1746 29.7714 12.2688Z" fill="white"/>
<path d="M34.7077 10.075C34.7803 10.2701 34.7725 10.4861 34.686 10.6755C34.5995 10.8648 34.4414 11.0121 34.2464 11.0849C34.0474 11.1492 33.8317 11.1377 33.6407 11.0525C33.4496 10.9674 33.2969 10.8146 33.2116 10.6236C33.1698 10.5275 33.1483 10.4237 33.1484 10.3188C33.1486 10.214 33.1704 10.1103 33.2126 10.0143C33.2547 9.91828 33.3163 9.83202 33.3934 9.76093C33.4704 9.68984 33.5614 9.63546 33.6605 9.6012C33.8623 9.52787 34.0848 9.53638 34.2805 9.62491C34.4762 9.71343 34.6295 9.87496 34.7077 10.075Z" fill="white"/>
<path d="M39.8947 8.49124C39.9411 8.69592 39.9076 8.9106 39.801 9.09139C39.6944 9.27217 39.5228 9.40539 39.3212 9.46378C39.1182 9.50981 38.9052 9.47592 38.7265 9.36913C38.5478 9.26234 38.417 9.09086 38.3613 8.89023C38.3333 8.78868 38.326 8.68253 38.3398 8.57811C38.3537 8.47369 38.3884 8.37312 38.4419 8.28239C38.4954 8.19165 38.5666 8.11261 38.6513 8.04995C38.7359 7.9873 38.8323 7.94231 38.9347 7.91768C39.0355 7.88978 39.1408 7.88261 39.2444 7.8966C39.348 7.91059 39.4477 7.94545 39.5374 7.99906C39.6271 8.05267 39.7051 8.12393 39.7665 8.20853C39.8279 8.29313 39.8715 8.3893 39.8947 8.49124Z" fill="white"/>
<path d="M45.205 7.58059C45.2202 7.78869 45.157 7.99495 45.0278 8.15878C44.8986 8.32261 44.7128 8.43215 44.5069 8.46585C44.3007 8.49089 44.093 8.43456 43.9277 8.30884C43.7624 8.18312 43.6527 7.99791 43.6217 7.79255C43.597 7.58121 43.6563 7.36862 43.7869 7.20065C43.9175 7.03269 44.109 6.92284 44.3199 6.89482C44.4239 6.87518 44.5308 6.87785 44.6337 6.90262C44.7366 6.92739 44.8331 6.97371 44.9167 7.03853C45.0004 7.10334 45.0693 7.18518 45.119 7.27862C45.1687 7.37206 45.198 7.47498 45.205 7.58059Z" fill="white"/>
<path d="M50.6035 7.35627C50.602 7.45832 50.5799 7.55902 50.5386 7.65236C50.4973 7.74571 50.4377 7.82979 50.3632 7.8996C50.2888 7.96941 50.2011 8.02351 50.1053 8.05869C50.0095 8.09387 49.9076 8.10941 49.8056 8.10438C49.6933 8.1185 49.5793 8.10856 49.4711 8.07523C49.363 8.0419 49.2631 7.98594 49.1783 7.91105C49.0934 7.83617 49.0254 7.74409 48.9788 7.64091C48.9323 7.53773 48.9082 7.42582 48.9082 7.31263C48.9082 7.19943 48.9323 7.08753 48.9788 6.98435C49.0254 6.88118 49.0934 6.78909 49.1783 6.71421C49.2631 6.63933 49.363 6.58336 49.4711 6.55003C49.5793 6.5167 49.6933 6.50676 49.8056 6.52088C50.0217 6.52741 50.2265 6.61869 50.3758 6.77501C50.5251 6.93132 50.6069 7.14012 50.6035 7.35627Z" fill="white"/>
<path d="M55.9886 7.88012C55.9548 8.08564 55.842 8.2698 55.6743 8.39327C55.5066 8.51675 55.2972 8.56974 55.091 8.54095C54.886 8.50427 54.7026 8.39125 54.5777 8.22465C54.4527 8.05805 54.3956 7.85028 54.4178 7.64322C54.4282 7.53943 54.4599 7.4389 54.5109 7.34789C54.5619 7.25688 54.631 7.17733 54.714 7.11418C54.7971 7.05103 54.8922 7.00564 54.9935 6.98082C55.0948 6.95601 55.2001 6.95229 55.3029 6.96992C55.4081 6.98366 55.5096 7.01825 55.6012 7.07166C55.6929 7.12508 55.773 7.19624 55.8369 7.281C55.9007 7.36575 55.947 7.4624 55.9731 7.56528C55.9991 7.66815 56.0044 7.77518 55.9886 7.88012Z" fill="white"/>
<path d="M61.275 9.02746C61.2167 9.22845 61.0829 9.39912 60.9017 9.5037C60.7204 9.60828 60.5057 9.63869 60.3026 9.58854C60.1925 9.57063 60.0873 9.52982 59.994 9.46875C59.9006 9.40768 59.8211 9.32772 59.7606 9.23402C59.7 9.14031 59.6598 9.03494 59.6425 8.92473C59.6252 8.81451 59.6312 8.70189 59.6601 8.59413C59.689 8.48638 59.7402 8.38588 59.8103 8.29913C59.8804 8.21238 59.968 8.14131 60.0673 8.0905C60.1666 8.03969 60.2755 8.01026 60.3869 8.00413C60.4983 7.99801 60.6097 8.0153 60.714 8.05491C60.8162 8.07935 60.9123 8.12438 60.9965 8.18723C61.0807 8.25008 61.1512 8.32944 61.2037 8.42046C61.2562 8.51148 61.2896 8.61225 61.3019 8.71662C61.3141 8.82098 61.305 8.92675 61.275 9.02746Z" fill="white"/>
<path d="M66.3614 10.8478C66.2742 11.0356 66.1183 11.1829 65.9259 11.2594C65.7335 11.3359 65.5191 11.3359 65.3267 11.2592C65.2302 11.2233 65.1419 11.1685 65.0669 11.098C64.9918 11.0275 64.9317 10.9427 64.8899 10.8487C64.8481 10.7546 64.8255 10.6531 64.8234 10.5502C64.8213 10.4473 64.8399 10.345 64.8779 10.2493C64.9633 10.0529 65.1209 9.89676 65.3181 9.81322C65.5153 9.72969 65.7371 9.7251 65.9375 9.80042C66.0353 9.83987 66.1241 9.8986 66.1987 9.97312C66.2733 10.0476 66.3321 10.1364 66.3717 10.2341C66.4112 10.3319 66.4307 10.4366 66.429 10.542C66.4272 10.6474 66.4042 10.7514 66.3614 10.8478Z" fill="white"/>
<path d="M71.1611 13.3414C71.0548 13.5194 70.8824 13.6481 70.6815 13.6995C70.4807 13.7508 70.2677 13.7207 70.0889 13.6157C69.912 13.5024 69.7834 13.3274 69.7281 13.1247C69.6728 12.922 69.6948 12.7059 69.7897 12.5185C69.8401 12.4263 69.9087 12.3454 69.9913 12.2807C70.074 12.2159 70.1689 12.1687 70.2704 12.1419C70.3719 12.1151 70.4778 12.1092 70.5816 12.1246C70.6855 12.1401 70.7851 12.1765 70.8744 12.2317C71.057 12.3431 71.1891 12.5212 71.2427 12.7284C71.2962 12.9356 71.2669 13.1554 71.1611 13.3414Z" fill="white"/>
<path d="M75.6243 16.3964C75.486 16.5246 75.3067 16.5996 75.1184 16.6082C74.93 16.6168 74.7447 16.5583 74.5953 16.4433C74.4459 16.3282 74.342 16.164 74.3022 15.9797C74.2624 15.7953 74.2891 15.6029 74.3776 15.4364C74.4412 15.3526 74.5208 15.2822 74.6118 15.2293C74.7027 15.1764 74.8032 15.142 74.9075 15.1281C75.0118 15.1142 75.1178 15.121 75.2194 15.1483C75.321 15.1755 75.4162 15.2226 75.4996 15.2867C75.5825 15.35 75.6518 15.4295 75.7032 15.5202C75.7547 15.611 75.7872 15.7113 75.7988 15.815C75.8105 15.9187 75.801 16.0236 75.771 16.1236C75.741 16.2235 75.6911 16.3163 75.6243 16.3964Z" fill="white"/>
<path d="M79.6509 19.9997C79.5007 20.1409 79.3023 20.2194 79.0962 20.2194C78.89 20.2194 78.6916 20.1409 78.5414 19.9997C78.4671 19.9277 78.4081 19.8414 78.3677 19.7461C78.3274 19.6508 78.3066 19.5484 78.3066 19.4449C78.3066 19.3414 78.3274 19.239 78.3677 19.1436C78.4081 19.0483 78.4671 18.9621 78.5414 18.89C78.695 18.7407 78.9007 18.6572 79.1149 18.6572C79.329 18.6572 79.5348 18.7407 79.6883 18.89C79.8274 19.0437 79.9012 19.2454 79.8942 19.4525C79.8873 19.6596 79.8 19.8558 79.6509 19.9997Z" fill="white"/>
<path d="M83.1674 24.1014C83.086 24.1649 82.9928 24.2115 82.8932 24.2384C82.7935 24.2653 82.6895 24.272 82.5873 24.2581C82.485 24.2441 82.3866 24.2098 82.2978 24.1572C82.209 24.1046 82.1317 24.0348 82.0703 23.9518C81.9484 23.7816 81.8948 23.5718 81.9202 23.364C81.9456 23.1562 82.0481 22.9655 82.2074 22.8296C82.2876 22.7617 82.3809 22.7112 82.4816 22.6812C82.5822 22.6511 82.688 22.6423 82.7923 22.6552C82.8965 22.668 82.9969 22.7024 83.0872 22.756C83.1776 22.8097 83.2558 22.8814 83.317 22.9668C83.4441 23.1384 83.4996 23.3526 83.4717 23.5644C83.4438 23.7761 83.3347 23.9687 83.1674 24.1014Z" fill="white"/>
<path d="M86.1589 28.5527C85.9756 28.6559 85.7598 28.6849 85.5558 28.6339C85.3518 28.5829 85.175 28.4557 85.0618 28.2784C84.9594 28.097 84.9307 27.8831 84.9818 27.6811C85.0328 27.4791 85.1597 27.3045 85.3361 27.1937C85.4256 27.1377 85.5255 27.1004 85.6297 27.0839C85.734 27.0674 85.8405 27.0721 85.9429 27.0977C86.0453 27.1233 86.1415 27.1693 86.2258 27.2329C86.31 27.2965 86.3805 27.3765 86.4332 27.468C86.4889 27.5565 86.526 27.6554 86.5424 27.7588C86.5587 27.8621 86.5539 27.9677 86.5283 28.0691C86.5026 28.1705 86.4567 28.2656 86.3932 28.3488C86.3297 28.4319 86.25 28.5013 86.1589 28.5527Z" fill="white"/>
<path d="M88.5151 33.4528C88.3225 33.5264 88.1092 33.525 87.9176 33.4488C87.7259 33.3726 87.5699 33.2272 87.4803 33.0414C87.4367 32.9482 87.412 32.8473 87.4079 32.7445C87.4037 32.6417 87.4201 32.5391 87.4561 32.4427C87.4921 32.3463 87.5469 32.2581 87.6175 32.1832C87.688 32.1083 87.7728 32.0482 87.8668 32.0065C88.062 31.9176 88.2844 31.9097 88.4853 31.9845C88.6863 32.0593 88.8494 32.2106 88.939 32.4055C88.9818 32.5018 89.0047 32.6058 89.0065 32.7113C89.0083 32.8167 88.9888 32.9214 88.9492 33.0191C88.9097 33.1168 88.8509 33.2056 88.7763 33.2801C88.7017 33.3547 88.6129 33.4134 88.5151 33.4528Z" fill="white"/>
<path d="M90.2604 38.528C90.0604 38.5815 89.8474 38.5539 89.6676 38.4512C89.4878 38.3484 89.3559 38.1789 89.3005 37.9793C89.258 37.7766 89.2902 37.5654 89.3909 37.3844C89.4917 37.2035 89.6544 37.065 89.849 36.9943C89.9496 36.9602 90.0562 36.9476 90.162 36.9572C90.2678 36.9669 90.3703 36.9985 90.4631 37.0502C90.5559 37.1019 90.6368 37.1724 90.7007 37.2573C90.7646 37.3422 90.8099 37.4395 90.8339 37.5429C90.8872 37.7496 90.8569 37.9689 90.7496 38.1533C90.6422 38.3377 90.4664 38.4723 90.2604 38.528Z" fill="white"/>
<path d="M91.3327 43.8769C91.1259 43.8999 90.9181 43.8449 90.7497 43.7226C90.5814 43.6004 90.4648 43.4198 90.4226 43.2161C90.3938 43.0065 90.4481 42.794 90.5739 42.6239C90.6997 42.4539 90.887 42.3397 91.0958 42.3059C91.294 42.295 91.4892 42.3584 91.6432 42.4838C91.7971 42.6091 91.8988 42.7874 91.9284 42.9837C91.9581 43.18 91.9134 43.3803 91.8032 43.5455C91.6931 43.7107 91.5253 43.8288 91.3327 43.8769Z" fill="white"/>
<path d="M91.7439 49.2751C91.5316 49.2725 91.328 49.1904 91.1734 49.045C91.0187 48.8995 90.9242 48.7013 90.9086 48.4896C90.9018 48.2833 90.9765 48.0826 91.1165 47.931C91.2565 47.7793 91.4505 47.6888 91.6566 47.6791C91.8695 47.6723 92.0765 47.7496 92.2328 47.8943C92.3891 48.039 92.4822 48.2394 92.4919 48.4522C92.5005 48.5561 92.4876 48.6607 92.454 48.7595C92.4204 48.8582 92.3669 48.949 92.2967 49.0262C92.2266 49.1034 92.1413 49.1653 92.0462 49.2081C91.9511 49.2509 91.8482 49.2737 91.7439 49.2751Z" fill="white"/>
<path d="M41.4275 97.1301C41.491 96.819 41.6709 96.5438 41.9304 96.3608C42.1899 96.1777 42.5094 96.1006 42.8238 96.1451C42.9827 96.1588 43.1371 96.2047 43.2777 96.2802C43.4182 96.3556 43.5419 96.4589 43.6411 96.5838C43.7403 96.7087 43.8129 96.8526 43.8546 97.0065C43.8963 97.1605 43.9061 97.3214 43.8835 97.4793C43.8372 97.8099 43.6615 98.1087 43.3949 98.3098C43.1284 98.5109 42.7929 98.5978 42.4623 98.5516C42.1316 98.5053 41.8329 98.3295 41.6318 98.0629C41.4308 97.7964 41.3438 97.4608 41.3901 97.1301H41.4275Z" fill="#03FCFE"/>
<path d="M35.419 95.6706C35.5144 95.3638 35.7245 95.1056 36.0056 94.95C36.2866 94.7944 36.6169 94.7532 36.9275 94.8352C37.0858 94.8797 37.2337 94.9551 37.3628 95.0571C37.4918 95.159 37.5994 95.2855 37.6793 95.4292C37.7593 95.5729 37.81 95.731 37.8286 95.8944C37.8472 96.0578 37.8333 96.2233 37.7877 96.3813C37.6924 96.6908 37.4803 96.9511 37.1964 97.1071C36.9125 97.263 36.5791 97.3023 36.2668 97.2167C36.1096 97.1708 35.963 97.0945 35.8353 96.992C35.7077 96.8895 35.6014 96.7628 35.5227 96.6192C35.444 96.4757 35.3943 96.318 35.3765 96.1552C35.3587 95.9925 35.3732 95.8278 35.419 95.6706Z" fill="#03FCFE"/>
<path d="M29.6094 93.5263C29.7363 93.2231 29.9778 92.9822 30.2813 92.8561C30.5848 92.73 30.9258 92.7289 31.2301 92.853C31.4023 92.8984 31.5627 92.9801 31.7006 93.0926C31.8385 93.2051 31.9507 93.3459 32.0297 93.5054C32.1087 93.665 32.1526 93.8396 32.1585 94.0175C32.1644 94.1954 32.1321 94.3725 32.0638 94.5369C31.9956 94.7013 31.8929 94.8492 31.7627 94.9706C31.6325 95.092 31.4779 95.1841 31.3091 95.2408C31.1404 95.2974 30.9615 95.3172 30.7844 95.299C30.6074 95.2807 30.4363 95.2247 30.2827 95.1347C29.9825 95.0078 29.744 94.7684 29.6182 94.4678C29.4923 94.1672 29.4892 93.8292 29.6094 93.5263Z" fill="#03FCFE"/>
<path d="M24.1485 90.6085C24.3208 90.3384 24.5904 90.145 24.9015 90.0684C25.2125 89.9918 25.5411 90.0379 25.8191 90.1971C26.0933 90.359 26.2952 90.6197 26.3832 90.9258C26.4713 91.2318 26.439 91.56 26.2929 91.8429C26.2135 91.9879 26.1062 92.1156 25.977 92.2187C25.8479 92.3218 25.6995 92.3982 25.5406 92.4435C25.3817 92.4887 25.2153 92.5019 25.0513 92.4823C24.8872 92.4627 24.7287 92.4106 24.5849 92.3292C24.4424 92.2456 24.318 92.1346 24.2188 92.0026C24.1196 91.8706 24.0476 91.7202 24.007 91.5601C23.9664 91.4 23.958 91.2335 23.9823 91.0701C24.0066 90.9068 24.0631 90.7499 24.1485 90.6085Z" fill="#03FCFE"/>
<path d="M19.1113 87.0056C19.3181 86.7578 19.613 86.5998 19.9338 86.5649C20.2547 86.53 20.5766 86.621 20.8318 86.8186C21.0905 87.0225 21.2581 87.3206 21.2978 87.6477C21.3375 87.9747 21.2462 88.3043 21.0437 88.5642C20.8405 88.8158 20.5474 88.9786 20.2264 89.0182C19.9053 89.0577 19.5815 88.9709 19.3233 88.7762C19.1915 88.675 19.0814 88.5485 18.9992 88.4041C18.917 88.2597 18.8645 88.1004 18.8448 87.9355C18.825 87.7706 18.8384 87.6033 18.8842 87.4437C18.93 87.284 19.0072 87.135 19.1113 87.0056Z" fill="#03FCFE"/>
<path d="M14.5488 82.8284C14.7823 82.5962 15.0983 82.4658 15.4277 82.4658C15.757 82.4658 16.073 82.5962 16.3066 82.8284C16.535 83.0615 16.663 83.3748 16.663 83.7012C16.663 84.0275 16.535 84.3409 16.3066 84.574C16.073 84.8062 15.757 84.9366 15.4277 84.9366C15.0983 84.9366 14.7823 84.8062 14.5488 84.574C14.3203 84.3409 14.1924 84.0275 14.1924 83.7012C14.1924 83.3748 14.3203 83.0615 14.5488 82.8284Z" fill="#03FCFE"/>
<path d="M10.572 78.0898C10.8323 77.9016 11.1553 77.8212 11.4735 77.8653C11.7917 77.9095 12.0806 78.0748 12.2799 78.3267C12.4752 78.5796 12.566 78.8978 12.5335 79.2157C12.5011 79.5335 12.3478 79.8268 12.1054 80.0349C11.9776 80.1404 11.83 80.2194 11.6712 80.2672C11.5125 80.3149 11.3458 80.3306 11.181 80.3131C11.0162 80.2957 10.8564 80.2456 10.7112 80.1657C10.566 80.0858 10.4381 79.9778 10.3351 79.8479C10.2343 79.7173 10.1604 79.568 10.1177 79.4086C10.075 79.2492 10.0643 79.0829 10.0864 78.9194C10.1084 78.7558 10.1627 78.5983 10.246 78.4559C10.3294 78.3135 10.4402 78.1891 10.572 78.0898Z" fill="#03FCFE"/>
<path d="M7.25581 72.8658C7.53851 72.7148 7.86848 72.6785 8.17723 72.7644C8.48599 72.8503 8.7498 73.0518 8.91392 73.3271C9.0775 73.6119 9.12212 73.9497 9.03808 74.2672C8.95405 74.5848 8.74815 74.8563 8.46511 75.0228C8.32748 75.1125 8.17255 75.1722 8.01036 75.198C7.84818 75.2239 7.68236 75.2154 7.52367 75.1731C7.36498 75.1308 7.21695 75.0556 7.0892 74.9524C6.96144 74.8492 6.8568 74.7202 6.78207 74.574C6.70014 74.4309 6.6474 74.273 6.62688 74.1095C6.60637 73.9459 6.61848 73.7799 6.66254 73.621C6.7066 73.4621 6.78172 73.3136 6.88355 73.184C6.98539 73.0543 7.11191 72.9462 7.25581 72.8658Z" fill="#03FCFE"/>
<path d="M4.57557 67.2802C4.87979 67.1515 5.22265 67.1487 5.52885 67.2727C5.83506 67.3966 6.07959 67.6369 6.20874 67.941C6.33512 68.2407 6.33937 68.578 6.22058 68.8808C6.1018 69.1837 5.86938 69.4281 5.57293 69.5619C5.26871 69.6906 4.92585 69.6933 4.61964 69.5694C4.31343 69.4455 4.0689 69.2051 3.93975 68.9011C3.81337 68.6013 3.80913 68.2641 3.92791 67.9612C4.0467 67.6584 4.27911 67.414 4.57557 67.2802Z" fill="#03FCFE"/>
<path d="M2.66841 61.3949C2.98234 61.314 3.31544 61.3586 3.59706 61.5192C3.87868 61.6798 4.08666 61.9438 4.17691 62.2552C4.26364 62.5644 4.22781 62.8951 4.07686 63.1784C3.9259 63.4618 3.67148 63.676 3.36656 63.7764C3.2078 63.826 3.0407 63.8434 2.87513 63.8275C2.70955 63.8115 2.54884 63.7626 2.40245 63.6836C2.25607 63.6046 2.12698 63.4971 2.02278 63.3674C1.91858 63.2377 1.84137 63.0885 1.79572 62.9286C1.75221 62.7705 1.74028 62.6055 1.7606 62.4429C1.78092 62.2802 1.8331 62.1232 1.91415 61.9808C1.99521 61.8383 2.10354 61.7133 2.23297 61.6128C2.36239 61.5122 2.51036 61.4382 2.66841 61.3949Z" fill="#03FCFE"/>
<path d="M1.57104 55.3102C1.88854 55.2776 2.20645 55.3681 2.45927 55.5629C2.71208 55.7578 2.88053 56.0422 2.92993 56.3576C2.95809 56.6799 2.86703 57.0014 2.67402 57.2611C2.481 57.5207 2.19945 57.7006 1.88271 57.7665C1.55922 57.8094 1.2318 57.7238 0.970736 57.528C0.709675 57.3322 0.535792 57.0418 0.486414 56.7192C0.463694 56.5552 0.47384 56.3884 0.516256 56.2284C0.558673 56.0684 0.632513 55.9185 0.733471 55.7873C0.834429 55.6562 0.960481 55.5465 1.10428 55.4645C1.24808 55.3826 1.40675 55.3302 1.57104 55.3102Z" fill="#03FCFE"/>
<path d="M1.24669 49.126C1.57734 49.126 1.89444 49.2573 2.12824 49.4912C2.36204 49.725 2.49339 50.0421 2.49339 50.3728C2.49339 50.7035 2.36204 51.0207 2.12824 51.2545C1.89444 51.4883 1.57734 51.6197 1.24669 51.6197C0.91605 51.6197 0.598948 51.4883 0.365147 51.2545C0.131347 51.0207 0 50.7035 0 50.3728C0 50.0421 0.131347 49.725 0.365147 49.4912C0.598948 49.2573 0.91605 49.126 1.24669 49.126Z" fill="#03FCFE"/>
<path d="M1.62083 42.9539C1.9475 42.9886 2.24731 43.1507 2.45507 43.4052C2.66284 43.6597 2.76178 43.9859 2.73039 44.313C2.69569 44.635 2.53707 44.9309 2.2881 45.138C2.03913 45.3451 1.71934 45.4472 1.39642 45.4227C1.23239 45.4071 1.07308 45.3592 0.927691 45.2816C0.782301 45.2041 0.653721 45.0985 0.549384 44.971C0.445047 44.8434 0.367023 44.6965 0.319824 44.5386C0.272624 44.3807 0.257187 44.215 0.274401 44.0511C0.312089 43.729 0.47377 43.4343 0.725143 43.2295C0.976516 43.0246 1.2978 42.9258 1.62083 42.9539Z" fill="#03FCFE"/>
<path d="M2.86708 36.8814C3.17305 36.9717 3.43278 37.1759 3.5928 37.4519C3.75282 37.7279 3.80096 38.0547 3.7273 38.3652C3.65281 38.6746 3.46283 38.9438 3.19627 39.1177C2.92971 39.2916 2.60677 39.3569 2.2936 39.3003C2.12925 39.2679 1.9731 39.2027 1.83451 39.1086C1.69591 39.0145 1.5777 38.8934 1.48693 38.7526C1.39617 38.6118 1.33471 38.4541 1.30623 38.289C1.27775 38.1239 1.28284 37.9547 1.32118 37.7916C1.36028 37.6288 1.43176 37.4756 1.53136 37.341C1.63097 37.2064 1.75666 37.0933 1.90093 37.0083C2.0452 36.9234 2.20511 36.8683 2.3711 36.8466C2.53709 36.8248 2.70577 36.8366 2.86708 36.8814Z" fill="#03FCFE"/>
<path d="M4.87438 31.0462C5.16852 31.1731 5.40254 31.4084 5.52788 31.7032C5.65323 31.998 5.66029 32.3298 5.5476 32.6297C5.48835 32.7832 5.39931 32.9234 5.28563 33.0423C5.17194 33.1613 5.03585 33.2565 4.8852 33.3225C4.73454 33.3886 4.5723 33.4242 4.40783 33.4273C4.24336 33.4303 4.07991 33.4008 3.9269 33.3404C3.62752 33.2158 3.38846 32.9795 3.26044 32.6815C3.13243 32.3835 3.12553 32.0474 3.24121 31.7444C3.3016 31.5906 3.39197 31.4503 3.50707 31.3316C3.62218 31.213 3.75972 31.1185 3.91169 31.0535C4.06366 30.9885 4.22703 30.9544 4.39231 30.9532C4.55758 30.9519 4.72145 30.9835 4.87438 31.0462Z" fill="#03FCFE"/>
<path d="M7.57976 25.4609C7.86799 25.619 8.08211 25.8846 8.17551 26.1998C8.2689 26.5151 8.23401 26.8545 8.07843 27.1441C7.92249 27.4313 7.66008 27.6457 7.34765 27.7413C7.03522 27.8369 6.69775 27.806 6.40786 27.6553C6.11962 27.4972 5.90551 27.2316 5.81211 26.9164C5.71872 26.6011 5.7536 26.2617 5.90919 25.9721C6.06512 25.6849 6.32754 25.4705 6.63997 25.3749C6.95239 25.2793 7.28986 25.3101 7.57976 25.4609Z" fill="#03FCFE"/>
<path d="M10.9959 20.3113C11.2517 20.5071 11.4219 20.7943 11.4707 21.1127C11.5195 21.4311 11.4431 21.7561 11.2577 22.0195C11.0696 22.2799 10.7883 22.4576 10.4725 22.5157C10.1566 22.5738 9.83052 22.5077 9.56217 22.3312C9.4246 22.2377 9.30715 22.1175 9.21674 21.9778C9.12633 21.8381 9.06479 21.6818 9.03575 21.5179C9.0067 21.3541 9.01074 21.1861 9.04762 21.0238C9.0845 20.8616 9.15348 20.7083 9.2505 20.5732C9.3478 20.4412 9.47017 20.3298 9.6106 20.2452C9.75103 20.1606 9.90676 20.1045 10.0689 20.0802C10.231 20.0559 10.3963 20.0638 10.5554 20.1034C10.7145 20.1431 10.8641 20.2137 10.9959 20.3113Z" fill="#03FCFE"/>
<path d="M15.0596 15.635C15.2843 15.8675 15.4099 16.1782 15.4099 16.5016C15.4099 16.825 15.2843 17.1357 15.0596 17.3682C14.826 17.6004 14.5101 17.7307 14.1807 17.7307C13.8514 17.7307 13.5354 17.6004 13.3018 17.3682C13.1812 17.2583 13.0848 17.1245 13.0189 16.9753C12.953 16.8261 12.9189 16.6647 12.9189 16.5016C12.9189 16.3385 12.953 16.1771 13.0189 16.0279C13.0848 15.8787 13.1812 15.7449 13.3018 15.635C13.5354 15.4028 13.8514 15.2725 14.1807 15.2725C14.5101 15.2725 14.826 15.4028 15.0596 15.635Z" fill="#03FCFE"/>
<path d="M19.6602 11.4957C19.8445 11.7514 19.9252 12.0673 19.886 12.3801C19.8468 12.6928 19.6906 12.979 19.4489 13.1813C19.2072 13.3835 18.8979 13.4867 18.5833 13.4701C18.2686 13.4534 17.9719 13.3183 17.7528 13.0917C17.6478 12.9657 17.5687 12.8203 17.5201 12.6637C17.4714 12.507 17.4541 12.3424 17.4691 12.1791C17.4842 12.0157 17.5313 11.857 17.6078 11.712C17.6843 11.5669 17.7886 11.4383 17.9149 11.3337C18.1686 11.1255 18.4941 11.0258 18.8208 11.0561C19.1476 11.0865 19.4492 11.2444 19.6602 11.4957Z" fill="#03FCFE"/>
<path d="M24.7591 7.99249C24.9232 8.27018 24.9734 8.60068 24.899 8.91456C24.8246 9.22844 24.6314 9.50127 24.3602 9.67574C24.0884 9.84465 23.7621 9.90262 23.4489 9.83763C23.1356 9.77265 22.8593 9.58969 22.6771 9.32662C22.5844 9.18884 22.5202 9.03394 22.4882 8.871C22.4562 8.70806 22.4571 8.54037 22.4908 8.37776C22.5244 8.21516 22.5902 8.06093 22.6843 7.92411C22.7784 7.78729 22.8989 7.67065 23.0387 7.58103C23.1785 7.49452 23.334 7.43653 23.4964 7.41039C23.6587 7.38425 23.8246 7.39047 23.9845 7.42872C24.1444 7.46696 24.2952 7.53647 24.4281 7.63322C24.561 7.72998 24.6735 7.85208 24.7591 7.99249Z" fill="#03FCFE"/>
<path d="M30.2702 5.18643C30.3944 5.48168 30.4003 5.81344 30.2866 6.11291C30.1728 6.41238 29.9482 6.65659 29.6593 6.79487C29.3599 6.93061 29.0189 6.94257 28.7107 6.82815C28.4025 6.71372 28.152 6.48217 28.0136 6.18391C27.9374 6.0398 27.8923 5.88122 27.8815 5.71852C27.8706 5.55583 27.8942 5.39267 27.9507 5.23971C28.0071 5.08675 28.0952 4.94742 28.2092 4.83082C28.3232 4.71421 28.4604 4.62295 28.6121 4.563C28.7617 4.49425 28.9236 4.45584 29.0882 4.45C29.2528 4.44416 29.4169 4.471 29.5711 4.52897C29.7252 4.58694 29.8664 4.67489 29.9864 4.78773C30.1064 4.90058 30.2028 5.03609 30.2702 5.18643Z" fill="#03FCFE"/>
<path d="M36.1546 3.06725C36.2525 3.38142 36.2223 3.72155 36.0705 4.0135C35.9187 4.30546 35.6576 4.52555 35.3443 4.62582C35.0334 4.72053 34.6979 4.69012 34.4091 4.54107C34.1204 4.39202 33.9012 4.1361 33.7984 3.82783C33.7248 3.66775 33.6861 3.4939 33.6846 3.31773C33.6832 3.14157 33.719 2.9671 33.7899 2.80582C33.8608 2.64453 33.965 2.50009 34.0957 2.38202C34.2264 2.26395 34.3807 2.17493 34.5483 2.12082C34.716 2.06671 34.8932 2.04874 35.0682 2.0681C35.2433 2.08745 35.4123 2.1437 35.5641 2.23312C35.7159 2.32254 35.8469 2.44311 35.9487 2.58689C36.0505 2.73067 36.1207 2.89438 36.1546 3.06725Z" fill="#03FCFE"/>
<path d="M42.1262 1.72017C42.1809 2.04219 42.1071 2.37281 41.9206 2.64095C41.7341 2.90909 41.4498 3.09332 41.1289 3.15404C40.8122 3.20978 40.4863 3.14102 40.2191 2.96212C39.952 2.78322 39.7643 2.50801 39.6952 2.19397C39.6627 2.03175 39.6628 1.86469 39.6955 1.70252C39.7282 1.54035 39.7929 1.38631 39.8857 1.24937C39.9785 1.11244 40.0977 0.995342 40.2362 0.904919C40.3747 0.814495 40.5298 0.752548 40.6925 0.722683C41.0145 0.667995 41.3451 0.741856 41.6132 0.928387C41.8813 1.11492 42.0655 1.39922 42.1262 1.72017Z" fill="#03FCFE"/>
<path d="M48.2972 1.22192C48.2978 1.54004 48.1767 1.84635 47.9589 2.07814C47.741 2.30993 47.4428 2.44968 47.1253 2.46877C46.8093 2.46955 46.5047 2.35022 46.2732 2.13495C46.0418 1.91968 45.9007 1.62453 45.8786 1.3092C45.8616 0.980454 45.9752 0.658313 46.1948 0.413052C46.4143 0.167791 46.7219 0.0193105 47.0505 2.49757e-08C47.3769 -6.52634e-05 47.6903 0.127873 47.9234 0.356337C48.1565 0.584801 48.2907 0.895574 48.2972 1.22192Z" fill="#03FCFE"/>
<path d="M54.4806 1.45871C54.4489 1.78068 54.2934 2.07773 54.0468 2.28712C53.8002 2.49651 53.4819 2.60185 53.1591 2.58088C52.8304 2.55538 52.5251 2.40069 52.3102 2.15066C52.0952 1.90063 51.9881 1.57562 52.0121 1.24675C52.0438 0.922478 52.2011 0.623487 52.4504 0.41376C52.6997 0.204034 53.0212 0.100233 53.3461 0.124583C53.6726 0.153188 53.9746 0.309222 54.187 0.558905C54.3993 0.808589 54.5048 1.13184 54.4806 1.45871Z" fill="#03FCFE"/>
<path d="M60.5898 2.45595C60.5571 2.61643 60.4931 2.76889 60.4014 2.90463C60.3098 3.04036 60.1923 3.1567 60.0557 3.24702C59.9191 3.33733 59.766 3.39985 59.6052 3.43099C59.4445 3.46212 59.2791 3.46127 59.1187 3.42849C58.8021 3.35943 58.5249 3.16983 58.3457 2.89985C58.1665 2.62987 58.0995 2.30073 58.1587 1.98215C58.1915 1.82167 58.2555 1.66921 58.3471 1.53347C58.4387 1.39774 58.5562 1.28139 58.6928 1.19107C58.8294 1.10076 58.9825 1.03825 59.1433 1.00711C59.3041 0.975977 59.4694 0.976826 59.6298 1.00961C59.9464 1.07867 60.2236 1.26827 60.4028 1.53825C60.582 1.80823 60.6491 2.13737 60.5898 2.45595Z" fill="#03FCFE"/>
<path d="M66.5109 4.26391C66.3958 4.56359 66.1695 4.80733 65.8793 4.94436C65.589 5.08139 65.257 5.10117 64.9525 4.99956C64.6494 4.89416 64.3986 4.67592 64.2523 4.39026C64.106 4.1046 64.0755 3.77352 64.1671 3.46592C64.2165 3.30646 64.2974 3.15854 64.405 3.03093C64.5126 2.90331 64.6447 2.79861 64.7935 2.72303C64.9424 2.64744 65.1049 2.60251 65.2714 2.59091C65.4379 2.5793 65.605 2.60127 65.7629 2.65548C65.9182 2.71113 66.0609 2.79705 66.1828 2.90828C66.3046 3.01951 66.4032 3.15383 66.4728 3.30344C66.5424 3.45305 66.5816 3.61498 66.5881 3.77985C66.5947 3.94473 66.5684 4.10925 66.5109 4.26391Z" fill="#03FCFE"/>
<path d="M72.1333 6.83283C71.9797 7.1157 71.7226 7.32818 71.4158 7.42578C71.1091 7.52339 70.7765 7.49856 70.4877 7.3565C70.1962 7.20484 69.9764 6.94425 69.876 6.63139C69.7756 6.31852 69.8028 5.97868 69.9516 5.68573C70.0188 5.53736 70.1161 5.40461 70.2374 5.29596C70.3587 5.18732 70.5014 5.10516 70.6562 5.05471C70.811 5.00426 70.9747 4.98665 71.1367 5.00298C71.2987 5.01931 71.4556 5.06924 71.5972 5.14958C71.7432 5.22467 71.8728 5.32783 71.9788 5.45315C72.0848 5.57847 72.1649 5.72349 72.2147 5.87987C72.2646 6.03626 72.283 6.20094 72.269 6.36447C72.255 6.528 72.2089 6.68716 72.1333 6.83283Z" fill="#03FCFE"/>
<path d="M77.4195 10.0621C77.3375 10.215 77.2245 10.349 77.0878 10.4558C76.951 10.5625 76.7935 10.6395 76.6253 10.6818C76.457 10.7242 76.2818 10.731 76.1109 10.7017C75.9399 10.6725 75.7769 10.6079 75.6323 10.5121C75.4877 10.4162 75.3647 10.2913 75.2711 10.1452C75.1775 9.99909 75.1155 9.83509 75.0889 9.66365C75.0624 9.4922 75.0719 9.3171 75.1168 9.14954C75.1618 8.98198 75.2412 8.82565 75.35 8.69054C75.5348 8.41924 75.819 8.23174 76.1411 8.16871C76.4632 8.10569 76.7971 8.17223 77.0705 8.3539C77.3403 8.53654 77.5279 8.81756 77.5932 9.13682C77.6584 9.45608 77.5961 9.7882 77.4195 10.0621Z" fill="#03FCFE"/>
<path d="M82.2816 13.9648C82.0606 14.2016 81.7562 14.3431 81.4328 14.3594C81.1094 14.3757 80.7923 14.2655 80.5487 14.0521C80.31 13.8405 80.1615 13.5455 80.1337 13.2278C80.1058 12.9101 80.2008 12.5937 80.3991 12.3439C80.5049 12.2149 80.6355 12.1084 80.7831 12.0308C80.9308 11.9532 81.0926 11.906 81.2588 11.8921C81.4251 11.8781 81.5924 11.8977 81.751 11.9496C81.9095 12.0015 82.056 12.0847 82.1818 12.1943C82.3054 12.3035 82.4062 12.4361 82.4782 12.5845C82.5502 12.7329 82.592 12.894 82.6013 13.0587C82.6106 13.2234 82.5871 13.3883 82.5322 13.5438C82.4773 13.6993 82.3921 13.8424 82.2816 13.9648Z" fill="#03FCFE"/>
<path d="M86.4836 18.4529C86.236 18.6579 85.9189 18.7594 85.5983 18.7362C85.2777 18.7129 84.9785 18.5668 84.7631 18.3282C84.5452 18.0801 84.4346 17.7556 84.4557 17.426C84.4767 17.0964 84.6276 16.7886 84.8753 16.5702C84.9936 16.457 85.1343 16.3699 85.2883 16.3144C85.4423 16.259 85.6062 16.2364 85.7694 16.2481C85.9327 16.2599 86.0917 16.3057 86.2361 16.3826C86.3806 16.4596 86.5074 16.5659 86.6082 16.6948C86.8247 16.9446 86.9331 17.27 86.9097 17.5997C86.8863 17.9293 86.7331 18.2362 86.4836 18.4529Z" fill="#03FCFE"/>
<path d="M90.1737 23.428C89.9009 23.6148 89.5651 23.6856 89.2401 23.6248C88.9152 23.564 88.6276 23.3766 88.4408 23.1038C88.2579 22.832 88.1894 22.499 88.2501 22.177C88.3107 21.855 88.4957 21.5699 88.7649 21.3832C89.0383 21.2015 89.3722 21.135 89.6943 21.198C90.0164 21.261 90.3006 21.4485 90.4854 21.7198C90.6656 21.9892 90.7339 22.3182 90.6757 22.6371C90.6175 22.956 90.4375 23.2397 90.1737 23.428Z" fill="#03FCFE"/>
<path d="M93.165 28.84C92.873 28.9754 92.54 28.9927 92.2356 28.8881C91.9312 28.7835 91.679 28.5652 91.5318 28.279C91.3915 27.9943 91.365 27.667 91.4577 27.3635C91.5503 27.06 91.7552 26.8033 92.0305 26.6456C92.1765 26.5656 92.3371 26.5156 92.5028 26.4987C92.6684 26.4817 92.8358 26.4981 92.995 26.5469C93.1542 26.5958 93.302 26.676 93.4297 26.7829C93.5574 26.8897 93.6624 27.0211 93.7385 27.1693C93.8108 27.3166 93.8534 27.4767 93.8637 27.6405C93.874 27.8043 93.8519 27.9685 93.7986 28.1237C93.7453 28.279 93.6619 28.4221 93.5532 28.5451C93.4445 28.668 93.3126 28.7682 93.165 28.84Z" fill="#03FCFE"/>
<path d="M95.4341 34.6C95.1281 34.6966 94.7966 34.6714 94.5086 34.5298C94.2207 34.3881 93.9985 34.1408 93.8882 33.8395C93.7804 33.5286 93.7998 33.1876 93.9422 32.891C94.0847 32.5944 94.3386 32.3661 94.6487 32.2559C94.8003 32.1956 94.963 32.1675 95.1261 32.1737C95.2892 32.1798 95.4493 32.22 95.596 32.2916C95.7427 32.3632 95.8729 32.4647 95.9781 32.5895C96.0833 32.7143 96.1613 32.8598 96.207 33.0165C96.3143 33.329 96.2931 33.6713 96.1482 33.9682C96.0032 34.2651 95.7464 34.4924 95.4341 34.6Z" fill="#03FCFE"/>
<path d="M96.9683 40.5978C96.8015 40.6561 96.6243 40.6782 96.4484 40.6628C96.2725 40.6474 96.1018 40.5947 95.9478 40.5084C95.7937 40.422 95.6597 40.3039 95.5548 40.1619C95.4498 40.0199 95.3761 39.8571 95.3388 39.6845C95.3014 39.5119 95.3011 39.3333 95.338 39.1605C95.3748 38.9878 95.448 38.8248 95.5525 38.6825C95.6571 38.5401 95.7907 38.4217 95.9445 38.3348C96.0983 38.248 96.2688 38.1949 96.4447 38.1789C96.7476 38.1515 97.0502 38.2357 97.2953 38.4158C97.5405 38.596 97.7113 38.8595 97.7757 39.1569C97.8401 39.4542 97.7935 39.7648 97.6448 40.0302C97.4961 40.2956 97.2555 40.4975 96.9683 40.5978Z" fill="#03FCFE"/>
<path d="M97.7283 46.7447C97.4014 46.7689 97.0782 46.6635 96.8286 46.4511C96.5789 46.2388 96.4229 45.9366 96.3943 45.6101C96.3696 45.2891 96.4699 44.9709 96.6744 44.7223C96.8789 44.4736 97.1717 44.3137 97.4914 44.276C97.6552 44.2606 97.8205 44.2778 97.9777 44.3265C98.1349 44.3753 98.2808 44.4547 98.4072 44.5602C98.5335 44.6657 98.6377 44.7952 98.7137 44.9411C98.7898 45.0871 98.8362 45.2466 98.8503 45.4106C98.8731 45.5735 98.8614 45.7392 98.816 45.8973C98.7706 46.0553 98.6924 46.202 98.5866 46.3278C98.4808 46.4536 98.3497 46.5558 98.2018 46.6276C98.0539 46.6994 97.8926 46.7393 97.7283 46.7447Z" fill="#03FCFE"/>
<path d="M97.6416 52.9291C97.333 52.8981 97.047 52.7531 96.8396 52.5226C96.6321 52.292 96.518 51.9924 96.5195 51.6822C96.5269 51.5185 96.5665 51.3578 96.6359 51.2094C96.7054 51.0609 96.8034 50.9276 96.9244 50.817C97.0453 50.7065 97.1869 50.6208 97.341 50.5649C97.4951 50.5091 97.6586 50.4841 97.8223 50.4915C97.9861 50.4989 98.1467 50.5384 98.2952 50.6079C98.4436 50.6773 98.5769 50.7754 98.6875 50.8964C98.798 51.0173 98.8837 51.1589 98.9395 51.313C98.9954 51.4671 99.0203 51.6307 99.0129 51.7945C98.9989 51.9596 98.9521 52.1203 98.8753 52.2671C98.7984 52.414 98.6931 52.544 98.5654 52.6497C98.4377 52.7553 98.2902 52.8344 98.1316 52.8824C97.973 52.9304 97.8064 52.9463 97.6416 52.9291Z" fill="#03FCFE"/>
<path d="M96.8063 59.0634C96.49 58.997 96.2118 58.8105 96.0304 58.543C95.849 58.2755 95.7785 57.948 95.8339 57.6295C95.8945 57.306 96.0805 57.0196 96.3514 56.8327C96.6223 56.6459 96.9561 56.5737 97.28 56.632C97.5986 56.6956 97.8799 56.881 98.0638 57.1488C98.2478 57.4166 98.3199 57.7457 98.2649 58.0659C98.235 58.2273 98.1734 58.3813 98.0838 58.5189C97.9942 58.6565 97.8783 58.775 97.7428 58.8677C97.6073 58.9604 97.4548 59.0254 97.294 59.059C97.1333 59.0925 96.9676 59.094 96.8063 59.0634Z" fill="#03FCFE"/>
<path d="M95.2346 65.0485C94.9189 64.9509 94.655 64.7318 94.5007 64.4396C94.3464 64.1473 94.3144 63.8058 94.4118 63.49C94.5122 63.1822 94.7283 62.9256 95.0145 62.7744C95.3007 62.6231 95.6344 62.5891 95.9452 62.6795C96.2581 62.7773 96.5198 62.9944 96.6738 63.2837C96.8278 63.5731 96.8616 63.9115 96.7681 64.2256C96.6702 64.5357 96.4551 64.7952 96.1687 64.9489C95.8822 65.1026 95.547 65.1384 95.2346 65.0485Z" fill="#03FCFE"/>
<path d="M92.8659 70.771C92.5752 70.6281 92.3515 70.3778 92.2422 70.073C92.1328 69.7681 92.1464 69.4326 92.2799 69.1376C92.4159 68.8494 92.657 68.6242 92.9538 68.5083C93.2506 68.3924 93.5804 68.3945 93.8757 68.5142C94.0282 68.5792 94.1662 68.6739 94.2817 68.7929C94.3971 68.9119 94.4877 69.0528 94.548 69.2072C94.6084 69.3616 94.6374 69.5265 94.6332 69.6922C94.6291 69.858 94.592 70.0213 94.524 70.1725C94.3834 70.4717 94.1298 70.7029 93.8188 70.8151C93.5079 70.9273 93.1651 70.9114 92.8659 70.771Z" fill="#03FCFE"/>
<path d="M89.7615 76.1207C89.4964 75.9404 89.311 75.6649 89.2436 75.3515C89.1763 75.038 89.2323 74.7107 89.4 74.4374C89.4875 74.299 89.6015 74.1793 89.7354 74.085C89.8692 73.9906 90.0204 73.9236 90.1801 73.8877C90.3399 73.8518 90.5052 73.8478 90.6665 73.8758C90.8278 73.9038 90.9821 73.9633 91.1204 74.0509C91.3909 74.2295 91.5813 74.5064 91.6511 74.8229C91.7209 75.1395 91.6647 75.4708 91.4944 75.7466C91.4058 75.8857 91.2905 76.0058 91.1552 76.1C91.0199 76.1942 90.8672 76.2606 90.706 76.2954C90.5449 76.3302 90.3784 76.3327 90.2163 76.3027C90.0541 76.2727 89.8996 76.2108 89.7615 76.1207Z" fill="#03FCFE"/>
<path d="M86.0217 81.0707C85.7685 80.8614 85.6082 80.5607 85.5755 80.2338C85.5428 79.907 85.6404 79.5804 85.8471 79.3251C86.0546 79.0701 86.3544 78.9074 86.6813 78.8723C87.0082 78.8373 87.3357 78.9328 87.5925 79.1381C87.7187 79.2428 87.8231 79.3713 87.8996 79.5164C87.9761 79.6615 88.0232 79.8202 88.0382 79.9835C88.0533 80.1468 88.036 80.3115 87.9873 80.4681C87.9386 80.6247 87.8595 80.7702 87.7546 80.8962C87.5456 81.1457 87.2474 81.3037 86.9237 81.3363C86.5999 81.3689 86.2761 81.2736 86.0217 81.0707Z" fill="#03FCFE"/>
<path d="M81.6964 85.4838C81.4814 85.2417 81.369 84.9255 81.383 84.602C81.397 84.2786 81.5362 83.9733 81.7712 83.7506C82.003 83.5296 82.311 83.4062 82.6314 83.4062C82.9517 83.4062 83.2597 83.5296 83.4916 83.7506C83.6103 83.8668 83.7047 84.0054 83.7691 84.1585C83.8335 84.3116 83.8667 84.476 83.8667 84.6421C83.8667 84.8082 83.8335 84.9726 83.7691 85.1257C83.7047 85.2788 83.6103 85.4175 83.4916 85.5336C83.372 85.6511 83.2299 85.7433 83.0738 85.8046C82.9178 85.8659 82.751 85.8951 82.5834 85.8905C82.4158 85.8858 82.2508 85.8474 82.0984 85.7775C81.946 85.7076 81.8093 85.6077 81.6964 85.4838Z" fill="#03FCFE"/>
<path d="M76.8214 89.2874C76.6436 89.0205 76.5756 88.6954 76.6313 88.3796C76.687 88.0638 76.8622 87.7817 77.1206 87.5917C77.3888 87.4011 77.7215 87.3243 78.0461 87.3781C78.3707 87.4318 78.6609 87.6117 78.8535 87.8785C78.9525 88.0141 79.0231 88.1682 79.0611 88.3317C79.0991 88.4953 79.1036 88.6648 79.0745 88.8301C79.0454 88.9955 78.9832 89.1532 78.8917 89.2939C78.8002 89.4346 78.6811 89.5554 78.5418 89.649C78.2654 89.8283 77.9294 89.8909 77.607 89.8231C77.2846 89.7554 77.0022 89.5628 76.8214 89.2874Z" fill="#03FCFE"/>
<path d="M71.5224 92.4789C71.3658 92.1907 71.3291 91.8525 71.4201 91.5374C71.5111 91.2224 71.7225 90.9558 72.0086 90.7956C72.2955 90.6429 72.6307 90.6083 72.9428 90.6991C73.2548 90.7899 73.519 90.999 73.6792 91.2819C73.8358 91.57 73.8725 91.9083 73.7815 92.2233C73.6905 92.5384 73.4791 92.8049 73.193 92.9651C72.9061 93.1178 72.5709 93.1525 72.2589 93.0616C71.9468 92.9708 71.6826 92.7617 71.5224 92.4789Z" fill="#03FCFE"/>
<path d="M65.8379 94.9473C65.7318 94.6427 65.748 94.3089 65.8828 94.016C66.0176 93.7231 66.2607 93.4938 66.5609 93.3763C66.8577 93.262 67.187 93.2654 67.4813 93.3859C67.7757 93.5065 68.0128 93.7349 68.1442 94.0246C68.2092 94.1775 68.243 94.3418 68.2435 94.5079C68.2441 94.674 68.2115 94.8385 68.1477 94.9918C68.0838 95.1451 67.9899 95.2842 67.8716 95.4007C67.7532 95.5172 67.6128 95.609 67.4586 95.6705C67.3048 95.7305 67.1406 95.7594 66.9755 95.7555C66.8105 95.7516 66.6478 95.715 66.4971 95.6477C66.3463 95.5804 66.2104 95.4839 66.0972 95.3636C65.984 95.2434 65.8959 95.1019 65.8379 94.9473Z" fill="#03FCFE"/>
<path d="M59.841 96.6435C59.7765 96.33 59.835 96.0037 60.0044 95.7321C60.1738 95.4606 60.4412 95.2646 60.7511 95.1847C61.0718 95.1056 61.4108 95.157 61.6937 95.3277C61.9765 95.4983 62.18 95.7743 62.2596 96.0949C62.306 96.2523 62.3188 96.4177 62.2973 96.5803C62.2757 96.743 62.2203 96.8993 62.1345 97.0392C62.0487 97.179 61.9345 97.2993 61.7993 97.3923C61.6641 97.4852 61.5108 97.5487 61.3495 97.5787C61.189 97.6175 61.0224 97.624 60.8594 97.5979C60.6964 97.5717 60.5401 97.5135 60.3998 97.4265C60.2595 97.3395 60.1378 97.2255 60.0419 97.0911C59.946 96.9567 59.8777 96.8045 59.841 96.6435Z" fill="#03FCFE"/>
<path d="M53.7702 97.5907C53.7522 97.427 53.7666 97.2613 53.8126 97.1032C53.8587 96.945 53.9354 96.7974 54.0384 96.6689C54.1414 96.5404 54.2688 96.4334 54.4131 96.3541C54.5575 96.2748 54.7161 96.2248 54.8798 96.2067C55.0435 96.1887 55.2092 96.2031 55.3673 96.2492C55.5255 96.2952 55.673 96.3719 55.8015 96.475C55.93 96.578 56.0369 96.7054 56.1162 96.8497C56.1955 96.9941 56.2456 97.1527 56.2636 97.3164C56.2952 97.6415 56.1979 97.9661 55.9928 98.2202C55.7876 98.4744 55.4909 98.6379 55.1665 98.6755C55.0035 98.6965 54.838 98.685 54.6795 98.6417C54.521 98.5985 54.3726 98.5243 54.2428 98.4235C54.1131 98.3227 54.0045 98.1972 53.9234 98.0543C53.8423 97.9114 53.7902 97.7539 53.7702 97.5907Z" fill="#03FCFE"/>
<path d="M47.5865 97.7781C47.6017 97.4523 47.7379 97.1439 47.9685 96.9133C48.1991 96.6827 48.5075 96.5464 48.8332 96.5312C49.1639 96.5313 49.481 96.6626 49.7148 96.8964C49.9486 97.1303 50.0799 97.4474 50.0799 97.7781C50.0799 98.1088 49.9486 98.4259 49.7148 98.6598C49.481 98.8936 49.1639 99.025 48.8332 99.025C48.6667 99.036 48.4997 99.0113 48.3434 98.9525C48.1872 98.8937 48.0453 98.8023 47.9272 98.6842C47.8092 98.5662 47.7177 98.4243 47.659 98.268C47.6002 98.1117 47.5755 97.9447 47.5865 97.7781Z" fill="#03FCFE"/>
</g>
<defs>
<clipPath id="clip0_1_1535">
<rect width="99" height="99" fill="white"/>
</clipPath>
</defs>
</svg>
